<?xml version="1.0" standalone="no"?><!DOCTYPE svg PUBLIC "-//W3C//DTD SVG 1.1//EN" "http://www.w3.org/Graphics/SVG/1.1/DTD/svg11.dtd"><svg t="1585141508690" class="icon" viewBox="0 0 1341 1024" version="1.1" xmlns="http://www.w3.org/2000/svg" p-id="8668" xmlns:xlink="http://www.w3.org/1999/xlink" width="261.9140625" height="200"><defs><style type="text/css"></style></defs><path d="M0 1024v-949.74737c0-40.891371 33.265941-74.157312 74.157312-74.157312h1192.998603a74.347948 74.347948 0 0 1 74.25263 74.157312l-2.382947 949.74737" fill="#4F99BA" p-id="8669"></path><path d="M24.210742 1024h1314.814856v-96.842968s-55.284371-98.749325-115.334636-160.515312c-44.608769-46.133855-80.352974-68.533557-138.401564-12.010053 0 0-87.787769 114.572093-135.256074 97.033603s-164.709299-444.276645-164.709299-444.276645c-135.065438-395.378572-281.950293 281.66434-383.273201 337.329982s-151.078842-154.986875-260.122499-27.737503c-71.488411 83.403146-117.717584 307.018896-117.717583 307.018896z" fill="#4F5D73" p-id="8670"></path><path d="M882.452946 282.426883a124.866425 124.866425 0 1 0 249.732849 0.095318 124.866425 124.866425 0 0 0-249.732849-0.095318z" fill="#F5CF87" p-id="8671"></path></svg>