<?xml version="1.0" encoding="utf-8"?>
<!-- Generator: Adobe Illustrator 24.0.0, SVG Export Plug-In . SVG Version: 6.00 Build 0)  -->
<svg version="1.1" id="图层_1" xmlns="http://www.w3.org/2000/svg" xmlns:xlink="http://www.w3.org/1999/xlink" x="0px" y="0px"
	 viewBox="0 0 206.1 200" style="enable-background:new 0 0 206.1 200;" xml:space="preserve">
<style type="text/css">
	.st0{fill:#C0EAFF;}
	.st1{fill:#1F87DD;}
</style>
<path class="st0" d="M23.9,135.6l11.2,15.1l-2.6,23.1l134.7,0.9l-6.9-12.5l6.9-24.9L23.9,135.6z M17.9,61.8l26.8-3.6V28.9h-25
	L17.9,61.8z M121.5,39.6h76.8v16.9h-76.8V39.6z"/>
<path class="st1" d="M200.9,141.9H5.8c-2.9,0-5.2-2.4-5.2-5.3V97.4c0-2.9,2.3-5.3,5.2-5.3c0,0,0,0,0,0h164c1.6,0,3,0.7,4,2
	l31.1,39.1c1.8,2.3,1.5,5.7-0.7,7.5C203.2,141.4,202.1,141.9,200.9,141.9L200.9,141.9z M10.9,131.2h179l-22.6-28.5H10.9V131.2z"/>
<path class="st1" d="M168.1,181H29.9c-16.2,0-29.3-13.5-29.4-30.2v-14.7c0-2.9,2.3-5.3,5.2-5.3c2.9,0,5.2,2.4,5.2,5.3v14.7
	c0,10.8,8.5,19.6,19,19.6h138.1c10.5,0,19-8.8,19-19.6v-12.9c0-2.9,2.3-5.3,5.2-5.3c2.9,0,5.2,2.4,5.2,5.3v12.9
	C197.4,167.5,184.3,181,168.1,181z"/>
<path class="st1" d="M23,177.4c-11,0-19.9-9.2-19.9-20.5c0-11.3,8.9-20.5,19.9-20.5s19.9,9.2,19.9,20.5
	C42.9,168.3,34,177.4,23,177.4z M23,147.2c-5.2,0-9.5,4.4-9.5,9.8c0,5.4,4.3,9.8,9.5,9.8s9.5-4.4,9.5-9.8
	C32.5,151.6,28.3,147.2,23,147.2z M175,177.4c-11,0-19.9-9.2-19.9-20.5c0-11.3,8.9-20.5,19.9-20.5s19.9,9.2,19.9,20.5
	C194.8,168.3,185.9,177.4,175,177.4z M175,147.2c-5.2,0-9.5,4.4-9.5,9.8c0,5.4,4.3,9.8,9.5,9.8s9.5-4.4,9.5-9.8
	C184.5,151.6,180.2,147.2,175,147.2z M128,179.7c-2.9,0-5.2-2.4-5.2-5.3v-8c0-2.9,2.3-5.3,5.2-5.3c2.9,0,5.2,2.4,5.2,5.3v8
	C133.2,177.3,130.9,179.7,128,179.7L128,179.7z M109.5,179.7c-2.9,0-5.2-2.4-5.2-5.3v-8c0-2.9,2.3-5.3,5.2-5.3
	c2.9,0,5.2,2.4,5.2,5.3v8C114.7,177.3,112.4,179.7,109.5,179.7L109.5,179.7z M91.1,179.7c-2.9,0-5.2-2.4-5.2-5.3v-8
	c0-2.9,2.3-5.3,5.2-5.3s5.2,2.4,5.2,5.3v8C96.2,177.3,93.9,179.7,91.1,179.7z M72.6,179.7c-2.9,0-5.2-2.4-5.2-5.3v-8
	c0-2.9,2.3-5.3,5.2-5.3s5.2,2.4,5.2,5.3v8C77.8,177.3,75.4,179.7,72.6,179.7z M54.1,179.7c-2.9,0-5.2-2.4-5.2-5.3v-8
	c0-2.9,2.3-5.3,5.2-5.3c2.9,0,5.2,2.4,5.2,5.3v8C59.3,177.3,57,179.7,54.1,179.7z M146.5,179.7c-2.9,0-5.2-2.4-5.2-5.3v-8
	c0-2.9,2.3-5.3,5.2-5.3c2.9,0,5.2,2.4,5.2,5.3v8C151.7,177.3,149.3,179.7,146.5,179.7L146.5,179.7z M182.7,121.8H92.1
	c-2.9,0-5.2-2.4-5.2-5.3c0-2.9,2.3-5.3,5.2-5.3l0,0h90.6c2.9,0,5.2,2.4,5.2,5.3C187.9,119.5,185.6,121.8,182.7,121.8z M119.7,100.5
	c-2.9,0-5.2-2.4-5.2-5.3V34.7h-6c-2.9,0-5.2-2.4-5.2-5.3s2.3-5.3,5.2-5.3h11.2c2.9,0,5.2,2.4,5.2,5.3v65.8
	C124.9,98.1,122.6,100.5,119.7,100.5L119.7,100.5z M86.9,34.7h-5.2c-2.9,0-5.2-2.4-5.2-5.3s2.3-5.3,5.2-5.3h5.2
	c2.9,0,5.2,2.4,5.2,5.3S89.8,34.7,86.9,34.7z M19.6,101.4c-2.9,0-5.2-2.4-5.2-5.3l0,0V29.3c0-2.9,2.3-5.3,5.2-5.3l0,0H61
	c2.9,0,5.2,2.4,5.2,5.3s-2.3,5.3-5.2,5.3H24.8v61.4C24.8,99,22.4,101.4,19.6,101.4L19.6,101.4z"/>
<path class="st1" d="M200.9,62.2h-61.3c-2.9,0-5.2-2.4-5.2-5.3c0-2.9,2.3-5.3,5.2-5.3l0,0h56.1v-7.1h-75.1c-2.9,0-5.2-2.4-5.2-5.3
	c0-2.9,2.3-5.3,5.2-5.3h80.3c2.9,0,5.2,2.4,5.2,5.3v17.8C206.1,59.9,203.7,62.2,200.9,62.2z M45.5,63.1H19.6c-2.9,0-5.2-2.4-5.2-5.3
	c0-2.9,2.3-5.3,5.2-5.3h20.7V30.2c0-2.9,2.3-5.3,5.2-5.3s5.2,2.4,5.2,5.3v27.6C50.7,60.7,48.3,63.1,45.5,63.1L45.5,63.1z"/>
</svg>
