<?xml version="1.0" standalone="no"?><!DOCTYPE svg PUBLIC "-//W3C//DTD SVG 1.1//EN" "http://www.w3.org/Graphics/SVG/1.1/DTD/svg11.dtd"><svg t="1585141522750" class="icon" viewBox="0 0 1024 1024" version="1.1" xmlns="http://www.w3.org/2000/svg" p-id="9632" xmlns:xlink="http://www.w3.org/1999/xlink" width="200" height="200"><defs><style type="text/css"></style></defs><path d="M119.049481 960.853333c-16.763259 0-33.640296-7.054222-45.131851-19.531852a65.080889 65.080889 0 0 1 0-91.022222 63.867259 63.867259 0 0 1 45.131851-19.569778c16.687407 0 33.60237 7.054222 45.131852 19.531852a65.080889 65.080889 0 0 1 0 91.060148c-11.529481 13.463704-27.420444 19.531852-45.131852 19.531852z m0-75.131259a9.936593 9.936593 0 0 0-7.054222 2.616889 11.188148 11.188148 0 0 0 0 15.928889c1.782519 1.782519 4.399407 2.616889 7.054222 2.616889 2.616889 0 5.233778-0.83437 7.054223-2.654815a11.188148 11.188148 0 0 0 0-15.928889 10.695111 10.695111 0 0 0-7.054223-2.578963z" fill="#666666" p-id="9633"></path><path d="M137.557333 1014.821926a99.631407 99.631407 0 0 1-71.528296-30.037333l-26.548148-26.548149a103.537778 103.537778 0 0 1 0-144.042666l1.782518-1.820445 467.740445-400.497777a271.018667 271.018667 0 0 1-37.091556-159.09926 271.890963 271.890963 0 0 1 76.98963-172.449185A262.902519 262.902519 0 0 1 838.542222 21.124741a27.875556 27.875556 0 0 1 15.928889 19.493926 25.751704 25.751704 0 0 1-7.054222 23.817481l-136.988445 137.974519 92.842667 94.663111 136.154074-136.988445a27.420444 27.420444 0 0 1 19.569778-7.888592c1.782519 0 3.602963 0 5.233778 0.83437 8.874667 1.782519 15.928889 8.040296 19.531852 15.928889a272.308148 272.308148 0 0 1 15.928888 154.661926 270.373926 270.373926 0 0 1-73.34874 141.463704c-50.36563 51.313778-116.660148 79.530667-187.354074 79.530666a258.503111 258.503111 0 0 1-112.260741-25.6l-417.185185 465.957926a103.575704 103.575704 0 0 1-72.021334 29.847704z m-60.03674-162.588445c-17.711407 19.531852-17.711407 49.531259 0.83437 68.077038l26.548148 26.586074c8.874667 8.874667 20.366222 14.108444 32.654222 14.108444 12.325926 0 23.817481-5.233778 32.654223-14.108444l429.70074-480.180149a28.823704 28.823704 0 0 1 20.328297-8.874666c4.437333 0 9.671111 0.83437 13.274074 3.602963 31.857778 18.545778 68.077037 28.216889 105.168592 28.216889a204.913778 204.913778 0 0 0 148.48-62.84326 221.942519 221.942519 0 0 0 58.405926-197.214814L821.854815 354.341926a27.572148 27.572148 0 0 1-39.063704 0l-129.099852-133.499259a26.624 26.624 0 0 1 0-38.07763l123.714371-124.700444c-13.274074-2.654815-26.548148-3.602963-39.708445-3.602963a209.806222 209.806222 0 0 0-150.262518 63.639703c-75.169185 75.96563-83.209481 195.39437-20.366223 282.851556a27.079111 27.079111 0 0 1-4.437333 36.257185L77.558519 852.195556z" fill="#666666" p-id="9634"></path><path d="M388.589037 518.068148a27.951407 27.951407 0 0 1-19.531852-7.888592L178.896593 316.567704H114.612148a26.282667 26.282667 0 0 1-22.983111-13.274074l-87.608889-143.36a28.065185 28.065185 0 0 1 4.437333-33.640297l70.693926-71.566222a27.420444 27.420444 0 0 1 19.531852-7.850667c5.271704 0 9.671111 1.782519 14.108445 4.437334l144.042666 90.225778c8.040296 5.233778 12.325926 13.274074 12.325926 22.14874l0.796445 64.474074 195.39437 200.628149a27.572148 27.572148 0 0 1 8.040296 19.531851c0 7.054222-2.616889 14.108444-8.040296 18.545778a25.448296 25.448296 0 0 1-18.545778 7.850667 27.951407 27.951407 0 0 1-19.493926-7.850667L223.383704 258.010074c-4.437333-5.233778-7.888593-11.491556-7.888593-18.545778L214.660741 178.441481 101.489778 107.747556 60.795259 149.238519 129.706667 262.447407h60.03674c7.054222 0 14.108444 2.654815 19.531852 7.888593l198.01126 201.614222a27.572148 27.572148 0 0 1 8.040296 19.531852c0 7.205926-2.654815 14.108444-8.040296 19.493926a27.192889 27.192889 0 0 1-18.697482 7.054222zM789.997037 1022.862222c-16.725333 0-33.640296-7.054222-45.131852-19.531852l-228.996741-236.088889c-24.803556-24.76563-24.803556-65.460148 0-91.022222l7.054223-7.054222-8.040297-8.040296a25.979259 25.979259 0 0 1 0.796445-38.07763 25.448296 25.448296 0 0 1 18.583704-7.888592c7.016296 0 14.070519 2.654815 19.493925 7.888592l26.548149 26.548148c10.695111 10.695111 9.709037 27.420444 0 38.07763l-25.562074 26.586074a11.188148 11.188148 0 0 0 0 15.928889l229.034666 236.088889c1.782519 1.782519 4.399407 2.616889 7.054222 2.616889 2.616889 0 5.233778-0.83437 7.054223-2.654815l104.296296-106.951111a11.188148 11.188148 0 0 0 0-15.928889l-229.831111-236.050963a9.936593 9.936593 0 0 0-7.054222-2.654815 9.936593 9.936593 0 0 0-7.054223 2.654815l-28.216889 29.202963a27.572148 27.572148 0 0 1-19.493925 8.040296 27.154963 27.154963 0 0 1-19.531852-8.040296l-22.983111-25.6a27.572148 27.572148 0 0 1-8.040297-19.531852c0-7.054222 2.654815-14.108444 8.040297-18.545778a25.448296 25.448296 0 0 1 18.545777-7.850666c7.054222 0 14.108444 2.616889 19.531852 7.850666l5.233778 5.271704 8.874667-8.874667a63.867259 63.867259 0 0 1 45.131852-19.531852c16.687407 0 33.60237 7.054222 45.093925 19.531852l229.034667 236.088889a65.080889 65.080889 0 0 1 0 91.022222l-104.334222 106.989037a61.62963 61.62963 0 0 1-45.131852 19.531852z" fill="#666666" p-id="9635"></path></svg>